<?xml version="1.0" encoding="utf-8"?>
<!-- Generator: Adobe Illustrator 18.1.1, SVG Export Plug-In . SVG Version: 6.00 Build 0)  -->
<svg version="1.1" id="Layer_1" xmlns="http://www.w3.org/2000/svg" xmlns:xlink="http://www.w3.org/1999/xlink" x="0px" y="0px"
	 viewBox="0 0 229 349" enable-background="new 0 0 229 349" xml:space="preserve">
<path fill="#2C77A4" d="M113.4,204c0,0-206.1-75.1-14.6-192.4C69.2,52.2,21.3,108,113.4,204z"/>
<path fill="#2C77A4" d="M126.1,198.3c0,0-100.7-106.3,0.2-163.5C113.6,67.9,82.7,97.2,126.1,198.3z"/>
<path fill="#FFFFFF" d="M68.7,166.3c0,0-66.9-47-18.5-95.1C47,92.3,33.5,113.9,68.7,166.3z"/>
<path fill="#2C77A4" d="M105.4,190.6c32.4-21.2,75.9-12.1,97.1,20.2c21.2,32.4,12.2,75.9-20.2,97.1c-32.4,21.2-75.9,12.1-97.1-20.3
	C63.9,255.3,73,211.8,105.4,190.6z"/>
<path fill="#2C77A4" d="M114.5,204.6c24.7-16.2,57.8-9.3,74,15.4c16.2,24.7,9.3,57.8-15.4,74c-24.7,16.2-57.8,9.3-74-15.5
	C82.9,253.8,89.8,220.7,114.5,204.6z"/>
<path fill="none" stroke="#FFFFFF" stroke-width="3" stroke-miterlimit="10" d="M119.5,212.1c20.5-13.4,48-7.7,61.4,12.8
	c13.4,20.5,7.7,48-12.8,61.5c-20.5,13.4-48,7.7-61.5-12.8C93.2,253.1,99,225.6,119.5,212.1z"/>
</svg>
