<?xml version="1.0" encoding="utf-8"?>
<!-- Generator: Adobe Illustrator 15.0.0, SVG Export Plug-In . SVG Version: 6.00 Build 0)  -->
<!DOCTYPE svg PUBLIC "-//W3C//DTD SVG 1.1//EN" "http://www.w3.org/Graphics/SVG/1.1/DTD/svg11.dtd">
<svg version="1.1" id="Layer_1" xmlns="http://www.w3.org/2000/svg" xmlns:xlink="http://www.w3.org/1999/xlink" x="0px" y="0px"
	 width="766.462px" height="427.526px" viewBox="0 0 766.462 427.526" enable-background="new 0 0 766.462 427.526"
	 xml:space="preserve">
<g>
	<path fill="#BF4B37" d="M159.825,302.67c-4.312,0-7.148-2.025-8.496-6.062l-2.685-13.343c-2.876,3.239-5.881,6.154-9.03,8.759
		c-3.144,2.606-6.529,4.854-10.167,6.738c-3.639,1.883-7.551,3.341-11.721,4.376c-4.178,1.033-8.691,1.548-13.549,1.548
		c-7.533,0-14.449-1.57-20.741-4.715c-6.283-3.145-11.699-7.695-16.229-13.664c-4.543-5.977-8.04-13.367-10.511-22.17
		c-2.476-8.807-3.701-18.862-3.701-30.17c0-10.243,1.382-19.765,4.178-28.563c2.782-8.803,6.784-16.435,11.988-22.901
		c5.205-6.465,11.453-11.524,18.726-15.158c7.278-3.634,15.435-5.454,24.514-5.454c7.721,0,14.321,1.232,19.797,3.702
		c5.482,2.471,10.383,5.77,14.694,9.904v-73.014h33.269V302.67H159.825z M115.501,278.288c6.908,0,12.795-1.438,17.646-4.314
		c4.853-2.873,9.434-6.959,13.745-12.262v-61.967c-3.781-4.585-7.879-7.813-12.325-9.7c-4.448-1.887-9.236-2.832-14.352-2.832
		c-5.04,0-9.588,0.945-13.674,2.832c-4.089,1.887-7.546,4.736-10.365,8.554c-2.84,3.823-5.016,8.67-6.537,14.549
		c-1.525,5.885-2.297,12.825-2.297,20.82c0,8.083,0.651,14.923,1.949,20.542c1.307,5.61,3.175,10.19,5.597,13.737
		c2.422,3.55,5.388,6.108,8.896,7.682C107.282,277.5,111.188,278.288,115.501,278.288z"/>
	<path fill="#BF4B37" d="M222.453,164.449V302.67H189.18V164.449H222.453z"/>
	<path fill="#BF4B37" d="M323.492,191.396c-0.9,1.436-1.843,2.448-2.832,3.031c-0.991,0.581-2.24,0.871-3.774,0.871
		c-1.613,0-3.338-0.451-5.18-1.344c-1.84-0.901-3.976-1.907-6.405-3.035c-2.426-1.121-5.184-2.132-8.286-3.029
		c-3.085-0.892-6.754-1.347-10.979-1.347c-6.547,0-11.716,1.391-15.492,4.175c-3.767,2.792-5.647,6.422-5.647,10.912
		c0,2.967,0.956,5.463,2.885,7.479c1.932,2.016,4.496,3.792,7.688,5.321c3.177,1.528,6.802,2.895,10.844,4.105
		c4.029,1.214,8.16,2.544,12.386,3.979c4.229,1.426,8.359,3.067,12.391,4.911c4.047,1.841,7.653,4.178,10.851,7.005
		c3.188,2.832,5.749,6.217,7.68,10.177c1.933,3.951,2.895,8.706,2.895,14.281c0,6.645-1.212,12.771-3.631,18.382
		c-2.431,5.61-5.984,10.463-10.653,14.547c-4.67,4.09-10.439,7.278-17.309,9.566c-6.867,2.292-14.748,3.438-23.636,3.438
		c-4.763,0-9.411-0.429-13.949-1.283c-4.536-0.849-8.891-2.04-13.061-3.569c-4.181-1.524-8.048-3.322-11.589-5.383
		c-3.554-2.068-6.672-4.311-9.365-6.742l7.679-12.66c0.986-1.525,2.149-2.694,3.502-3.507c1.355-0.802,3.051-1.214,5.123-1.214
		c2.065,0,4.019,0.595,5.856,1.76c1.842,1.166,3.978,2.419,6.404,3.766c2.426,1.353,5.267,2.609,8.553,3.771
		c3.273,1.172,7.43,1.757,12.461,1.757c3.946,0,7.346-0.474,10.168-1.414c2.827-0.941,5.169-2.182,7.006-3.706
		c1.842-1.53,3.189-3.3,4.044-5.319c0.845-2.021,1.281-4.112,1.281-6.268c0-3.236-0.967-5.885-2.895-7.948
		c-1.935-2.064-4.496-3.86-7.679-5.385c-3.193-1.53-6.828-2.899-10.919-4.107c-4.084-1.219-8.255-2.539-12.527-3.975
		c-4.267-1.444-8.437-3.121-12.527-5.059c-4.084-1.925-7.724-4.37-10.911-7.34c-3.191-2.961-5.75-6.6-7.685-10.918
		c-1.932-4.309-2.891-9.512-2.891-15.621c0-5.65,1.124-11.043,3.374-16.166c2.229-5.121,5.536-9.58,9.897-13.402
		c4.354-3.821,9.79-6.872,16.293-9.164c6.515-2.292,14.039-3.434,22.57-3.434c9.517,0,18.187,1.574,25.995,4.718
		c7.824,3.148,14.33,7.273,19.539,12.39L323.492,191.396z"/>
</g>
<g>
	<path fill="#2A77A4" d="M568.843,122.386v199.849h-48.117V122.386H568.843z"/>
	<path fill="#2A77A4" d="M669.344,325.351c-17.272,0-30.579-4.902-39.929-14.71c-9.357-9.804-14.025-23.341-14.025-40.609V158.423
		h-20.256c-2.604,0-4.835-0.843-6.72-2.534c-1.89-1.684-2.826-4.211-2.826-7.598v-19.08l32.144-5.266l3.9-54.538
		c0.521-2.598,1.731-4.608,3.606-6.038c1.882-1.428,4.247-2.143,7.11-2.143h31.147v62.917h52.585v34.28h-52.585v108.292
		c0,6.235,1.567,11.104,4.677,14.613c3.115,3.506,7.277,5.264,12.467,5.264c2.989,0,5.489-0.361,7.497-1.079
		c2.005-0.709,3.774-1.455,5.253-2.237c1.494-0.781,2.826-1.528,4.001-2.237c1.167-0.717,2.334-1.075,3.501-1.075
		c1.433,0,2.595,0.358,3.51,1.075c0.913,0.709,1.883,1.785,2.924,3.212l14.415,23.372c-7.013,5.844-15.073,10.262-24.159,13.252
		C688.495,323.852,679.082,325.351,669.344,325.351z"/>
</g>
<text transform="matrix(1 0 0 1 322.2627 305.0728)" fill="#BF4B37" font-family="'Optima-Bold'" font-size="203.635" letter-spacing="-14">H</text>
<path fill="#2A77A4" d="M474.588,57.392c0,0,79.218-98.328,93.707,41.297C555.504,71.305,539.418,29.555,474.588,57.392z"/>
<path fill="#2A77A4" d="M474.588,66.114c0,0,71.477-30.067,76.987,42.305C538.659,92.65,531.438,67.417,474.588,66.114z"/>
<path fill="#FFFFFF" d="M501.861,41.576c0,0,36.374-26.057,48.724,13.968C541.305,48.32,534.023,35.039,501.861,41.576z"/>
<path fill="#2A77A4" d="M484.499,71.774c0,29.531-23.942,53.474-53.467,53.474c-29.549,0-53.487-23.943-53.487-53.474
	c0-29.528,23.938-53.478,53.487-53.478C460.557,18.297,484.499,42.246,484.499,71.774z"/>
<path fill="#2A77A4" d="M471.78,71.774c0,22.512-18.245,40.764-40.748,40.764c-22.529,0-40.774-18.252-40.774-40.764
	c0-22.51,18.245-40.757,40.774-40.757C453.535,31.017,471.78,49.264,471.78,71.774z"/>
<path fill="none" stroke="#FFFFFF" stroke-width="3" stroke-miterlimit="10" d="M464.873,71.774
	c0,18.703-15.161,33.862-33.841,33.862c-18.719,0-33.869-15.159-33.869-33.862c0-18.701,15.15-33.855,33.869-33.855
	C449.712,37.919,464.873,53.073,464.873,71.774z"/>
<path fill="#BF4B37" d="M276.197,95.837c0-32.716,26.522-59.228,59.223-59.228c32.719,0,59.228,26.512,59.228,59.228
	c0,32.703-26.509,59.22-59.228,59.22C302.72,155.058,276.197,128.541,276.197,95.837z"/>
<path fill="none" stroke="#FFFFFF" stroke-width="4" stroke-miterlimit="10" d="M290.281,95.837
	c0-24.929,20.219-45.148,45.139-45.148c24.94,0,45.146,20.219,45.146,45.148s-20.206,45.139-45.146,45.139
	C310.5,140.976,290.281,120.767,290.281,95.837z"/>
<path fill="none" stroke="#BF4B37" stroke-miterlimit="10" d="M297.931,95.837c0-20.72,16.789-37.506,37.489-37.506
	c20.714,0,37.508,16.786,37.508,37.506c0,20.713-16.794,37.495-37.508,37.495C314.72,133.332,297.931,116.55,297.931,95.837z"/>
<path fill="#BF4B37" d="M282.888,93.775c0,0-79.214-98.318-93.708,41.302C201.97,107.7,218.066,65.948,282.888,93.775z"/>
<path fill="#BF4B37" d="M282.792,102.508c0,0-71.468-30.067-76.976,42.305C218.718,129.045,225.931,103.814,282.792,102.508z"/>
<path fill="#FFFFFF" d="M256.775,77.976c0,0-36.378-26.058-48.734,13.964C217.325,84.714,224.598,71.438,256.775,77.976z"/>
<text transform="matrix(1 0 0 1 99.6338 392.1245)"><tspan x="0" y="0" fill="#2A77A4" font-family="'Futura-Medium'" font-size="57.7163" letter-spacing="-1">the ultimate</tspan><tspan x="287.271" y="0" fill="#BF4B37" font-family="'Futura-Medium'" font-size="57.7163" letter-spacing="-1"> food battle</tspan><tspan x="577.246" y="0" font-family="'Futura-Medium'" font-size="57.7163" letter-spacing="-1"> </tspan></text>
</svg>
