<?xml version="1.0" encoding="utf-8"?>
<!-- Generator: Adobe Illustrator 18.1.1, SVG Export Plug-In . SVG Version: 6.00 Build 0)  -->
<svg version="1.1" id="Layer_1" xmlns="http://www.w3.org/2000/svg" xmlns:xlink="http://www.w3.org/1999/xlink" x="0px" y="0px"
	 viewBox="77 183.5 766.5 427.5" enable-background="new 77 183.5 766.5 427.5" xml:space="preserve">
<path fill="#2A77A4" d="M564.4,265c0,31.9-25.8,57.7-57.7,57.7c-31.9,0-57.7-25.8-57.7-57.7c0-31.9,25.8-57.7,57.7-57.7
	C538.6,207.3,564.4,233.2,564.4,265z"/>
<path fill="#2A77A4" d="M550.7,265c0,24.3-19.7,44-44,44c-24.3,0-44-19.7-44-44c0-24.3,19.7-44,44-44C531,221,550.7,240.7,550.7,265
	z"/>
<path fill="none" stroke="#FFFFFF" stroke-width="3" stroke-miterlimit="10" d="M543.2,265c0,20.2-16.4,36.5-36.5,36.5
	c-20.2,0-36.5-16.4-36.5-36.5c0-20.2,16.3-36.5,36.5-36.5C526.9,228.5,543.2,244.8,543.2,265z"/>
<path fill="#BF4B37" d="M339.7,291c0-35.3,28.6-63.9,63.9-63.9c35.3,0,63.9,28.6,63.9,63.9c0,35.3-28.6,63.9-63.9,63.9
	C368.3,354.9,339.7,326.3,339.7,291z"/>
<path fill="none" stroke="#FFFFFF" stroke-width="4" stroke-miterlimit="10" d="M354.9,291c0-26.9,21.8-48.7,48.7-48.7
	c26.9,0,48.7,21.8,48.7,48.7c0,26.9-21.8,48.7-48.7,48.7C376.7,339.7,354.9,317.9,354.9,291z"/>
<path fill="none" stroke="#BF4B37" stroke-miterlimit="10" d="M363.1,291c0-22.4,18.1-40.5,40.4-40.5c22.3,0,40.5,18.1,40.5,40.5
	c0,22.3-18.1,40.5-40.5,40.5C381.2,331.4,363.1,313.3,363.1,291z"/>
<text transform="matrix(1 0 0 1 129.0288 576.2004)" fill="#2A77A4" font-family="'Futura-Medium'" font-size="65.5939" letter-spacing="-1">the ultimate</text>
<text transform="matrix(1 0 0 1 455.5102 576.2004)" fill="#BF4B37" font-family="'Futura-Medium'" font-size="65.5939" letter-spacing="-1"> food battle</text>
<text transform="matrix(1 0 0 1 785.0629 576.2004)" font-family="'Futura-Medium'" font-size="65.5939" letter-spacing="-1"> </text>
<g>
	<path fill="#BF4B37" d="M205.6,339.7h47.3v105.1c0,19.3-5.1,35-15.2,47.2c-5.8,7-13.2,12.6-22.2,16.7c-9,4.1-18.2,6.2-27.6,6.2
		c-18.8,0-34.7-6.3-47.6-19S121,467.8,121,449.4c0-17.8,6.4-33.2,19.2-46.2c12.8-13,28-19.5,45.5-19.5c2.8,0,7,0.3,12.6,0.8v52.1
		c-3.9-3-7.8-4.6-11.6-4.6c-4.9,0-9.1,1.8-12.6,5.4c-3.5,3.6-5.2,7.9-5.2,13c0,4.9,1.8,9.1,5.4,12.6c3.6,3.5,8,5.2,13,5.2
		c12.1,0,18.2-8.4,18.2-25.2V339.7z"/>
	<path fill="#BF4B37" d="M326.4,386.3v126.1h-47.3V386.3H326.4z"/>
	<path fill="#BF4B37" d="M434.6,388.1v49.8c-6.7,0-11.2,1.2-13.7,3.7c-2.5,2.5-4.1,7.4-4.7,14.7c-2.2,24.4-11.6,41.6-28.3,51.6
		c-8.9,5.2-21.4,7.8-37.7,7.8h-6.6v-50.1h2.2c7.6,0,13-1.6,16.3-4.7c3.2-3.2,5.1-8.7,5.6-16.6c0.7-12.9,1.9-22,3.6-27.2
		c1.7-5.2,5.2-10.4,10.6-15.6c9.3-9,22.1-13.5,38.6-13.5H434.6z"/>
	<path fill="#BF4B37" d="M498.7,339.7v52.7c8-5.8,16-8.7,24-8.7c12.1,0,21.8,4.4,28.9,13.2c7.1,8.8,10.7,20.6,10.7,35.5v79.9H515
		v-66.7c0-5.4-0.6-9-1.7-10.9c-1.1-1.9-3.4-2.8-6.6-2.8c-5.3,0-8,3.9-8,11.8v68.6h-47.3V339.7H498.7z"/>
</g>
<g>
	<path fill="#2A77A4" d="M655.4,344.6v166.1h-62.3V344.6H655.4z"/>
	<path fill="#2A77A4" d="M747.6,283.3V347h28v65.8h-28c0,13.2,2.1,22.3,6.2,27.3c4.2,5,11.8,7.5,22.9,7.5v65.5
		c-3.2,0.1-5.6,0.2-7.2,0.2c-14.1,0-27.4-3.3-39.9-9.8c-12.5-6.6-22.5-15.4-30.1-26.7c-9.6-14.3-14.3-33.3-14.3-57V283.3H747.6z"/>
</g>
<g>
	<path fill="#BF4B37" d="M355.8,320.9c0,0-0.1,0.2-0.4,0.7c-0.3,0.4-0.7,1.1-1.3,1.9c-1.1,1.6-2.8,3.7-5,6.1
		c-2.1,2.4-4.8,5.1-7.7,7.8c-0.7,0.7-1.5,1.3-2.3,2c-0.8,0.7-1.5,1.4-2.4,2c-1.6,1.3-3.2,2.7-4.9,3.9c-1.7,1.3-3.4,2.5-5.1,3.7
		c-0.8,0.6-1.7,1.2-2.6,1.7c-0.9,0.6-1.7,1.1-2.6,1.6c-3.4,2.1-6.7,3.9-9.6,5.3c-2.9,1.4-5.4,2.4-7.2,3.1c-0.9,0.3-1.7,0.6-2.1,0.7
		c-0.5,0.2-0.8,0.2-0.8,0.2s0.1-0.2,0.4-0.7c0.3-0.4,0.7-1.1,1.3-1.9c1.1-1.6,2.8-3.7,5-6.1c2.1-2.4,4.8-5.1,7.7-7.8
		c0.7-0.7,1.5-1.3,2.3-2c0.8-0.7,1.6-1.3,2.4-2c1.6-1.3,3.3-2.6,4.9-3.9c1.7-1.3,3.4-2.5,5.1-3.7c0.8-0.6,1.7-1.2,2.6-1.7
		c0.9-0.6,1.7-1.1,2.6-1.6c3.4-2.1,6.7-3.9,9.6-5.3c2.9-1.4,5.4-2.5,7.2-3.1c0.9-0.3,1.6-0.6,2.1-0.7
		C355.5,320.9,355.8,320.9,355.8,320.9z"/>
</g>
<g>
	<path fill="#2A77A4" d="M549.4,278.3c0,0,0.4,0.1,1.1,0.4c0.7,0.3,1.7,0.6,3,1.1c2.5,1,6.1,2.5,10.2,4.5c4.1,2,8.9,4.4,13.8,7.3
		c1.2,0.7,2.5,1.4,3.7,2.2c1.3,0.7,2.5,1.5,3.8,2.3c2.5,1.5,5.1,3.2,7.6,4.9c2.5,1.7,5,3.4,7.5,5.1c1.2,0.8,2.4,1.7,3.6,2.6
		c1.2,0.9,2.4,1.7,3.5,2.6c4.5,3.4,8.7,6.8,12.1,9.8c3.4,3,6.2,5.7,8.1,7.6c1,1,1.7,1.8,2.2,2.3c0.5,0.5,0.7,0.8,0.7,0.8
		s-0.4-0.1-1.1-0.4c-0.7-0.3-1.7-0.6-3-1.1c-2.5-1-6.1-2.5-10.2-4.5c-4.1-2-8.9-4.4-13.8-7.3c-1.2-0.7-2.5-1.4-3.7-2.2
		c-1.3-0.7-2.5-1.5-3.8-2.3c-2.5-1.5-5.1-3.2-7.6-4.9c-2.5-1.7-5-3.4-7.5-5.1c-1.2-0.8-2.4-1.7-3.6-2.6c-1.2-0.9-2.3-1.7-3.5-2.6
		c-4.5-3.4-8.7-6.8-12.1-9.8c-3.4-3-6.2-5.7-8.1-7.6c-1-1-1.7-1.8-2.2-2.3C549.6,278.6,549.4,278.3,549.4,278.3z"/>
</g>
</svg>
