<?xml version="1.0" encoding="utf-8"?>
<!-- Generator: Adobe Illustrator 18.1.1, SVG Export Plug-In . SVG Version: 6.00 Build 0)  -->
<svg version="1.1" id="Layer_1" xmlns="http://www.w3.org/2000/svg" xmlns:xlink="http://www.w3.org/1999/xlink" x="0px" y="0px"
	 viewBox="-76 256.5 458.4 280.5" enable-background="new -76 256.5 458.4 280.5" xml:space="preserve">
<g>
	<ellipse fill="#FFFCE3" cx="158.1" cy="394.6" rx="201.7" ry="123.9"/>
	<path fill="#2C77A4" d="M359.8,394.6c0,10.8-2.3,21.6-6.5,31.6c-4.2,10-10.2,19.2-17.3,27.4c-7.1,8.2-15.2,15.5-23.9,22
		c-8.7,6.4-18,12.1-27.7,17.1c-19.4,9.9-40.1,17.2-61.3,22.1c-21.3,4.9-43.1,7.7-65,8.3c-21.9,0.6-44-0.9-65.7-4.8
		c-10.9-2-21.6-4.6-32.3-7.8c-10.6-3.3-21.1-7.1-31.2-11.9c-10.1-4.8-20-10.3-29.3-16.8c-9.3-6.5-18.1-14-25.8-22.6
		c-7.7-8.6-14.4-18.5-19.1-29.4c-4.7-10.9-7.4-23-7.4-35c0-12.1,2.7-24.1,7.4-35c4.7-11,11.4-20.8,19.1-29.4
		c7.7-8.7,16.5-16.1,25.8-22.6c9.3-6.5,19.1-12,29.3-16.8c10.1-4.8,20.6-8.7,31.2-11.9c10.6-3.3,21.4-5.8,32.3-7.8
		c21.7-3.9,43.8-5.4,65.7-4.8c21.9,0.6,43.7,3.4,65,8.3c21.3,4.9,42,12.2,61.3,22.1c9.7,5,19,10.7,27.7,17.1
		c8.7,6.4,16.8,13.8,23.9,22c7.1,8.2,13.1,17.4,17.3,27.4C357.5,373,359.9,383.8,359.8,394.6z M359.8,394.6
		c0-10.8-2.4-21.6-6.7-31.5c-4.3-9.9-10.4-19-17.6-27c-7.2-8.1-15.5-15.1-24.3-21.3c-8.8-6.2-18.2-11.5-28-16
		c-9.7-4.6-19.8-8.3-30.1-11.5c-10.3-3.1-20.7-5.6-31.3-7.6c-21.1-3.8-42.6-5.2-63.9-4.6c-21.3,0.6-42.5,3.3-63.2,8.1
		c-20.6,4.8-40.6,11.9-59.2,21.4c-9.3,4.8-18.1,10.2-26.4,16.3c-8.3,6.1-15.8,13-22.4,20.6c-6.6,7.6-12,16-15.8,24.9
		c-3.8,8.9-5.8,18.5-5.8,28c0,9.6,2,19.1,5.8,28c3.8,9,9.2,17.4,15.8,25c6.6,7.6,14.1,14.5,22.4,20.6c8.3,6.1,17.1,11.6,26.4,16.3
		c18.6,9.5,38.6,16.6,59.2,21.4c20.6,4.8,41.8,7.5,63.2,8.1c21.3,0.6,42.8-0.8,63.9-4.6c10.5-1.9,21-4.4,31.3-7.6
		c10.3-3.1,20.4-6.9,30.1-11.5c9.7-4.6,19.2-9.8,28-16c8.8-6.2,17.1-13.2,24.3-21.3c7.2-8,13.3-17.1,17.6-27
		C357.4,416.2,359.8,405.4,359.8,394.6z"/>
</g>
<text transform="matrix(1 0 0 1 -7.0005 436.564)" fill="#BF4B37" font-family="'Bauhaus93'" font-size="128.8234" letter-spacing="-3">dish</text>
<text transform="matrix(1 0 0 1 212.5439 445.5474)" fill="#2A77A4" font-family="'Bauhaus93'" font-size="178.4835" letter-spacing="-4">it</text>
</svg>
