<?xml version="1.0" encoding="utf-8"?>
<!-- Generator: Adobe Illustrator 18.1.1, SVG Export Plug-In . SVG Version: 6.00 Build 0)  -->
<svg version="1.1" id="Layer_1" xmlns="http://www.w3.org/2000/svg" xmlns:xlink="http://www.w3.org/1999/xlink" x="0px" y="0px"
	 viewBox="77 183.5 766.5 427.5" enable-background="new 77 183.5 766.5 427.5" xml:space="preserve">
<path fill="#2A77A4" d="M569,254.4c0,28.7-23.3,52-52,52c-28.7,0-52-23.3-52-52c0-28.7,23.3-52,52-52
	C545.7,202.4,569,225.7,569,254.4z"/>
<path fill="#2A77A4" d="M556.6,254.4c0,21.9-17.7,39.6-39.6,39.6c-21.9,0-39.6-17.7-39.6-39.6c0-21.9,17.7-39.6,39.6-39.6
	C538.9,214.8,556.6,232.5,556.6,254.4z"/>
<path fill="none" stroke="#FFFFFF" stroke-width="3" stroke-miterlimit="10" d="M549.9,254.4c0,18.2-14.7,32.9-32.9,32.9
	c-18.2,0-32.9-14.7-32.9-32.9c0-18.2,14.7-32.9,32.9-32.9C535.2,221.5,549.9,236.2,549.9,254.4z"/>
<path fill="#BF4B37" d="M366.5,277.8c0-31.8,25.8-57.6,57.6-57.6c31.8,0,57.6,25.8,57.6,57.6c0,31.8-25.8,57.6-57.6,57.6
	C392.3,335.4,366.5,309.6,366.5,277.8z"/>
<path fill="none" stroke="#FFFFFF" stroke-width="4" stroke-miterlimit="10" d="M380.2,277.8c0-24.2,19.7-43.9,43.9-43.9
	c24.2,0,43.9,19.7,43.9,43.9c0,24.2-19.6,43.9-43.9,43.9C399.8,321.7,380.2,302,380.2,277.8z"/>
<path fill="none" stroke="#BF4B37" stroke-miterlimit="10" d="M387.6,277.8c0-20.1,16.3-36.5,36.5-36.5c20.1,0,36.5,16.3,36.5,36.5
	c0,20.1-16.3,36.5-36.5,36.5C403.9,314.2,387.6,297.9,387.6,277.8z"/>
<text transform="matrix(1 0 0 1 176.6343 534.8285)" fill="#2A77A4" font-family="'Futura-Medium'" font-size="59.1137" letter-spacing="-1">the ultimate</text>
<text transform="matrix(1 0 0 1 470.8613 534.8285)" fill="#BF4B37" font-family="'Futura-Medium'" font-size="59.1137" letter-spacing="-1"> food battle</text>
<text transform="matrix(1 0 0 1 767.8564 534.8285)" font-family="'Futura-Medium'" font-size="59.1137" letter-spacing="-1"> </text>
<g>
	<path fill="#BF4B37" d="M248.6,318.7h42.6v94.7c0,17.4-4.6,31.6-13.7,42.5c-5.2,6.3-11.9,11.3-20,15c-8.1,3.7-16.4,5.6-24.9,5.6
		c-16.9,0-31.2-5.7-42.9-17.1c-11.6-11.4-17.4-25.4-17.4-42c0-16,5.8-29.9,17.3-41.6c11.6-11.7,25.2-17.6,41-17.6
		c2.5,0,6.3,0.2,11.4,0.7v47c-3.5-2.7-7-4.1-10.5-4.1c-4.4,0-8.2,1.6-11.3,4.8c-3.2,3.2-4.7,7.1-4.7,11.7c0,4.4,1.6,8.2,4.9,11.3
		c3.3,3.2,7.2,4.7,11.7,4.7c10.9,0,16.4-7.6,16.4-22.7V318.7z"/>
	<path fill="#BF4B37" d="M357.5,360.7v113.7h-42.6V360.7H357.5z"/>
	<path fill="#BF4B37" d="M455,362.3v44.9c-6,0-10.1,1.1-12.4,3.4c-2.2,2.2-3.7,6.7-4.3,13.3c-2,22-10.5,37.5-25.5,46.5
		c-8,4.7-19.3,7.1-34,7.1H373v-45.1h1.9c6.8,0,11.7-1.4,14.6-4.3c2.9-2.9,4.6-7.8,5.1-15c0.6-11.6,1.7-19.8,3.2-24.5
		c1.6-4.7,4.7-9.4,9.5-14c8.4-8.1,19.9-12.2,34.8-12.2H455z"/>
	<path fill="#BF4B37" d="M512.7,318.7v47.5c7.2-5.2,14.4-7.9,21.7-7.9c10.9,0,19.6,4,26,11.9c6.4,7.9,9.6,18.6,9.6,32v72h-42.6
		v-60.1c0-4.9-0.5-8.1-1.5-9.8c-1-1.7-3-2.5-6-2.5c-4.8,0-7.2,3.5-7.2,10.6v61.8h-42.6V318.7H512.7z"/>
</g>
<g>
	<path fill="#2A77A4" d="M656,324.1v149.7h-56.2V324.1H656z"/>
	<path fill="#2A77A4" d="M739.1,268.9v57.4h25.2v59.3h-25.2c0,11.9,1.9,20.1,5.6,24.6c3.8,4.5,10.6,6.8,20.7,6.8v59
		c-2.9,0.1-5.1,0.2-6.5,0.2c-12.7,0-24.7-3-36-8.9c-11.3-5.9-20.3-13.9-27.1-24c-8.6-12.9-12.9-30-12.9-51.4v-123H739.1z"/>
</g>
<g>
	<path fill="#BF4B37" d="M381,304.7c0,0-0.1,0.2-0.4,0.6c-0.3,0.4-0.6,1-1.1,1.7c-1,1.5-2.5,3.4-4.4,5.7c-1.9,2.2-4.2,4.7-6.9,7.1
		c-0.6,0.6-1.3,1.2-2,1.8c-0.7,0.6-1.4,1.2-2.1,1.8c-1.4,1.2-2.9,2.4-4.4,3.5c-1.5,1.1-3.1,2.3-4.6,3.3c-0.8,0.5-1.6,1-2.3,1.5
		c-0.8,0.5-1.5,1-2.3,1.4c-3.1,1.9-6.1,3.4-8.7,4.7c-2.7,1.2-5,2.1-6.6,2.7c-0.8,0.3-1.5,0.5-2,0.6c-0.5,0.1-0.7,0.2-0.7,0.2
		s0.1-0.2,0.4-0.6c0.3-0.4,0.6-1,1.1-1.7c1-1.5,2.5-3.5,4.4-5.7c1.9-2.2,4.2-4.7,6.9-7.1c0.6-0.6,1.3-1.2,2-1.8
		c0.7-0.6,1.4-1.2,2.1-1.8c1.4-1.2,2.9-2.4,4.4-3.5c1.5-1.1,3.1-2.3,4.6-3.3c0.8-0.5,1.6-1,2.3-1.5c0.8-0.5,1.5-1,2.3-1.4
		c3.1-1.9,6.1-3.4,8.7-4.7c2.7-1.2,5-2.1,6.6-2.7c0.8-0.3,1.5-0.5,2-0.6C380.7,304.8,381,304.7,381,304.7z"/>
</g>
<g>
	<path fill="#2A77A4" d="M555.4,266.4c0,0,0.3,0.1,1,0.3c0.6,0.2,1.6,0.5,2.7,0.9c2.3,0.8,5.5,2.1,9.3,3.9c3.8,1.7,8,3.9,12.5,6.4
		c1.1,0.6,2.2,1.3,3.4,1.9c1.1,0.7,2.3,1.3,3.4,2.1c2.3,1.4,4.6,2.9,6.9,4.4c2.3,1.5,4.5,3,6.7,4.6c1.1,0.8,2.2,1.6,3.2,2.3
		c1.1,0.8,2.1,1.6,3.1,2.3c4.1,3.1,7.8,6.2,10.8,9c3.1,2.8,5.5,5.2,7.2,7c0.8,0.9,1.5,1.6,1.9,2.1c0.4,0.5,0.7,0.8,0.7,0.8
		s-0.3-0.1-1-0.3c-0.6-0.2-1.6-0.5-2.7-0.9c-2.3-0.8-5.5-2.1-9.3-3.9c-3.8-1.7-8-3.9-12.5-6.4c-1.1-0.6-2.2-1.3-3.4-1.9
		c-1.1-0.7-2.3-1.3-3.4-2.1c-2.3-1.4-4.6-2.9-6.9-4.4c-2.3-1.5-4.5-3-6.7-4.6c-1.1-0.8-2.2-1.6-3.2-2.3c-1.1-0.8-2.1-1.6-3.1-2.4
		c-4.1-3.1-7.8-6.2-10.8-9c-3.1-2.8-5.5-5.2-7.2-7c-0.8-0.9-1.5-1.6-1.9-2.1C555.7,266.6,555.4,266.4,555.4,266.4z"/>
</g>
</svg>
