<?xml version="1.0" encoding="utf-8"?>
<!-- Generator: Adobe Illustrator 15.0.0, SVG Export Plug-In . SVG Version: 6.00 Build 0)  -->
<!DOCTYPE svg PUBLIC "-//W3C//DTD SVG 1.1//EN" "http://www.w3.org/Graphics/SVG/1.1/DTD/svg11.dtd">
<svg version="1.1" id="Layer_1" xmlns="http://www.w3.org/2000/svg" xmlns:xlink="http://www.w3.org/1999/xlink" x="0px" y="0px"
	 width="425.333px" height="212px" viewBox="0 0 425.333 212" enable-background="new 0 0 425.333 212" xml:space="preserve">
<g>
	<path fill="#BF4B37" d="M89.76,173.739c-2.369,0-3.927-1.113-4.668-3.331l-1.475-7.331c-1.58,1.78-3.231,3.382-4.961,4.812
		c-1.727,1.432-3.587,2.666-5.586,3.702c-1.999,1.034-4.148,1.835-6.439,2.404c-2.295,0.567-4.775,0.85-7.444,0.85
		c-4.138,0-7.938-0.862-11.395-2.59c-3.452-1.728-6.427-4.228-8.917-7.507c-2.497-3.284-4.417-7.345-5.775-12.181
		c-1.361-4.839-2.034-10.363-2.034-16.575c0-5.628,0.759-10.859,2.295-15.693c1.529-4.837,3.727-9.029,6.586-12.582
		c2.859-3.552,6.292-6.332,10.288-8.328c3.999-1.997,8.48-2.996,13.468-2.996c4.242,0,7.868,0.677,10.877,2.033
		c3.012,1.358,5.705,3.171,8.073,5.441V63.755h18.278v109.984H89.76z M65.408,160.343c3.795,0,7.03-0.79,9.695-2.37
		c2.666-1.579,5.183-3.823,7.551-6.737V117.19c-2.077-2.519-4.329-4.292-6.771-5.329c-2.443-1.036-5.074-1.556-7.885-1.556
		c-2.769,0-5.268,0.52-7.513,1.556c-2.247,1.037-4.146,2.603-5.694,4.699c-1.561,2.101-2.756,4.764-3.592,7.993
		c-0.837,3.233-1.262,7.047-1.262,11.439c0,4.44,0.358,8.198,1.071,11.285c0.718,3.083,1.744,5.599,3.075,7.548
		c1.331,1.95,2.96,3.355,4.888,4.22C60.893,159.909,63.039,160.343,65.408,160.343z"/>
	<path fill="#BF4B37" d="M124.168,97.799v75.94h-18.281v-75.94H124.168z"/>
	<path fill="#BF4B37" d="M179.68,112.604c-0.495,0.788-1.013,1.345-1.556,1.665c-0.544,0.319-1.231,0.479-2.074,0.479
		c-0.886,0-1.834-0.247-2.846-0.738c-1.011-0.495-2.184-1.048-3.519-1.668c-1.333-0.615-2.848-1.171-4.552-1.664
		c-1.695-0.49-3.711-0.74-6.032-0.74c-3.597,0-6.437,0.765-8.512,2.294c-2.069,1.534-3.103,3.528-3.103,5.995
		c0,1.63,0.525,3.001,1.584,4.109c1.062,1.107,2.47,2.083,4.224,2.924c1.746,0.84,3.737,1.591,5.958,2.255
		c2.213,0.667,4.483,1.398,6.805,2.187c2.324,0.783,4.593,1.686,6.808,2.698c2.223,1.012,4.205,2.296,5.961,3.849
		c1.751,1.556,3.158,3.416,4.219,5.591c1.062,2.171,1.59,4.783,1.59,7.847c0,3.65-0.666,7.017-1.995,10.099
		c-1.335,3.083-3.288,5.749-5.853,7.992c-2.565,2.247-5.735,3.999-9.509,5.256c-3.773,1.26-8.103,1.89-12.986,1.89
		c-2.617,0-5.17-0.235-7.664-0.705c-2.492-0.466-4.885-1.121-7.176-1.961c-2.297-0.838-4.421-1.825-6.367-2.957
		c-1.953-1.137-3.666-2.368-5.146-3.704l4.219-6.956c0.542-0.838,1.181-1.48,1.924-1.927c0.745-0.44,1.676-0.667,2.815-0.667
		c1.135,0,2.208,0.327,3.217,0.967c1.012,0.641,2.186,1.329,3.519,2.069c1.333,0.743,2.894,1.434,4.699,2.071
		c1.798,0.644,4.082,0.965,6.846,0.965c2.168,0,4.036-0.26,5.586-0.776c1.553-0.518,2.84-1.199,3.849-2.036
		c1.012-0.841,1.752-1.813,2.222-2.923c0.464-1.11,0.704-2.259,0.704-3.443c0-1.778-0.531-3.233-1.59-4.367
		c-1.063-1.134-2.47-2.12-4.219-2.958c-1.754-0.841-3.751-1.593-5.999-2.257c-2.244-0.669-4.535-1.395-6.882-2.184
		c-2.344-0.793-4.635-1.715-6.883-2.779c-2.244-1.058-4.243-2.4-5.995-4.032c-1.753-1.627-3.159-3.626-4.222-5.999
		c-1.062-2.366-1.588-5.226-1.588-8.582c0-3.104,0.618-6.066,1.854-8.882c1.225-2.812,3.042-5.263,5.438-7.363
		c2.393-2.1,5.379-3.775,8.952-5.034c3.579-1.26,7.713-1.887,12.4-1.887c5.229,0,9.992,0.864,14.282,2.592
		c4.298,1.729,7.873,3.996,10.735,6.807L179.68,112.604z"/>
</g>
<g>
	<path fill="#2A77A4" d="M314.477,74.689v109.798h-26.436V74.689H314.477z"/>
	<path fill="#2A77A4" d="M369.693,186.199c-9.489,0-16.8-2.693-21.937-8.081c-5.142-5.387-7.706-12.824-7.706-22.312V94.488h-11.129
		c-1.431,0-2.656-0.464-3.691-1.393c-1.038-0.925-1.553-2.313-1.553-4.174V78.438l17.659-2.893l2.144-29.964
		c0.286-1.427,0.951-2.531,1.981-3.317c1.033-0.784,2.333-1.177,3.906-1.177h17.113v34.566h28.89v18.834h-28.89v59.496
		c0,3.426,0.86,6.102,2.568,8.029c1.712,1.926,3.999,2.892,6.85,2.892c1.643,0,3.016-0.198,4.119-0.593
		c1.102-0.39,2.073-0.8,2.886-1.229c0.821-0.429,1.553-0.84,2.198-1.229c0.642-0.395,1.282-0.591,1.924-0.591
		c0.787,0,1.425,0.196,1.928,0.591c0.502,0.389,1.035,0.98,1.606,1.765l7.92,12.841c-3.853,3.21-8.281,5.638-13.273,7.28
		C380.215,185.376,375.043,186.199,369.693,186.199z"/>
</g>
<text transform="matrix(1 0 0 1 179.0044 175.0581)" fill="#BF4B37" font-family="'Optima-Bold'" font-size="111.8783" letter-spacing="-7">H</text>
<path fill="#2A77A4" d="M262.693,38.981c0,0,43.522-54.022,51.483,22.688C307.149,46.625,298.311,23.688,262.693,38.981z"/>
<path fill="#2A77A4" d="M262.693,43.773c0,0,39.27-16.52,42.298,23.242C297.894,58.353,293.926,44.489,262.693,43.773z"/>
<path fill="#FFFFFF" d="M277.677,30.292c0,0,19.983-14.316,26.769,7.674C299.348,33.997,295.347,26.7,277.677,30.292z"/>
<path fill="#2A77A4" d="M268.138,46.883c0,16.225-13.154,29.379-29.375,29.379c-16.234,0-29.386-13.154-29.386-29.379
	c0-16.223,13.152-29.381,29.386-29.381C254.984,17.502,268.138,30.66,268.138,46.883z"/>
<path fill="#2A77A4" d="M261.151,46.883c0,12.368-10.024,22.396-22.388,22.396c-12.378,0-22.402-10.028-22.402-22.396
	c0-12.367,10.024-22.393,22.402-22.393C251.126,24.49,261.151,34.516,261.151,46.883z"/>
<path fill="none" stroke="#FFFFFF" stroke-width="3" stroke-miterlimit="10" d="M257.356,46.883c0,10.275-8.33,18.604-18.593,18.604
	c-10.284,0-18.608-8.329-18.608-18.604c0-10.274,8.324-18.601,18.608-18.601C249.026,28.282,257.356,36.608,257.356,46.883z"/>
<path fill="#BF4B37" d="M153.696,60.104c0-17.975,14.572-32.54,32.538-32.54c17.976,0,32.54,14.565,32.54,32.54
	c0,17.967-14.564,32.536-32.54,32.536C168.268,92.64,153.696,78.07,153.696,60.104z"/>
<path fill="none" stroke="#FFFFFF" stroke-width="4" stroke-miterlimit="10" d="M161.434,60.104c0-13.696,11.108-24.805,24.8-24.805
	c13.702,0,24.804,11.108,24.804,24.805s-11.102,24.8-24.804,24.8C172.542,84.903,161.434,73.8,161.434,60.104z"/>
<path fill="none" stroke="#BF4B37" stroke-miterlimit="10" d="M165.636,60.104c0-11.384,9.224-20.606,20.597-20.606
	c11.38,0,20.607,9.223,20.607,20.606c0,11.38-9.227,20.6-20.607,20.6C174.86,80.703,165.636,71.483,165.636,60.104z"/>
<path fill="#BF4B37" d="M157.372,58.971c0,0-43.521-54.017-51.484,22.691C112.915,66.62,121.758,43.682,157.372,58.971z"/>
<path fill="#BF4B37" d="M157.319,63.769c0,0-39.265-16.52-42.291,23.242C122.116,78.348,126.079,64.485,157.319,63.769z"/>
<path fill="#FFFFFF" d="M143.025,50.29c0,0-19.986-14.316-26.775,7.672C121.351,53.992,125.347,46.698,143.025,50.29z"/>
</svg>
