<?xml version="1.0" encoding="utf-8"?>
<!-- Generator: Adobe Illustrator 15.0.0, SVG Export Plug-In . SVG Version: 6.00 Build 0)  -->
<!DOCTYPE svg PUBLIC "-//W3C//DTD SVG 1.1//EN" "http://www.w3.org/Graphics/SVG/1.1/DTD/svg11.dtd">
<svg version="1.1" id="Layer_1" xmlns="http://www.w3.org/2000/svg" xmlns:xlink="http://www.w3.org/1999/xlink" x="0px" y="0px"
	 width="458.441px" height="280.52px" viewBox="0 0 458.441 280.52" enable-background="new 0 0 458.441 280.52"
	 xml:space="preserve">
<g>
	<ellipse fill="#EFEFEF" cx="234.077" cy="138.103" rx="201.739" ry="123.908"/>
	<path fill="#2C77A4" d="M435.815,138.103c0.047,10.819-2.273,21.611-6.513,31.562c-4.228,9.969-10.192,19.167-17.288,27.354
		c-7.109,8.184-15.186,15.524-23.919,21.972c-8.738,6.441-18.029,12.143-27.708,17.097c-19.361,9.917-40.073,17.199-61.334,22.102
		c-21.258,4.949-43.066,7.698-64.976,8.298c-21.906,0.588-43.96-0.87-65.702-4.79c-10.862-1.99-21.643-4.576-32.261-7.831
		c-10.607-3.274-21.092-7.138-31.218-11.925c-10.125-4.77-19.999-10.261-29.273-16.797c-9.267-6.524-18.061-13.956-25.761-22.615
		c-7.691-8.636-14.396-18.453-19.124-29.398c-4.722-10.92-7.39-22.953-7.396-35.028c-0.013-12.076,2.668-24.11,7.387-35.031
		c4.699-10.961,11.428-20.77,19.114-29.41c7.696-8.666,16.485-16.108,25.758-22.628c9.278-6.535,19.141-12.047,29.274-16.808
		c10.129-4.785,20.605-8.673,31.22-11.937c10.621-3.254,21.404-5.838,32.268-7.828c21.743-3.936,43.804-5.376,65.712-4.79
		c21.912,0.606,43.724,3.352,64.982,8.315c21.261,4.91,41.977,12.188,61.334,22.118c9.682,4.952,18.968,10.661,27.707,17.103
		c8.734,6.447,16.807,13.792,23.916,21.976c7.096,8.188,13.062,17.386,17.287,27.355
		C433.542,116.492,435.862,127.283,435.815,138.103z M435.815,138.103c-0.012-10.819-2.389-21.585-6.673-31.495
		c-4.277-9.931-10.442-18.961-17.607-27.001c-7.167-8.068-15.459-15.067-24.26-21.254c-8.808-6.199-18.247-11.451-27.975-16.02
		c-9.726-4.589-19.835-8.312-30.091-11.464c-10.266-3.136-20.713-5.633-31.253-7.555c-21.098-3.787-42.555-5.186-63.88-4.594
		c-21.33,0.603-42.539,3.305-63.151,8.121c-20.614,4.769-40.629,11.853-59.189,21.374c-9.274,4.76-18.138,10.208-26.408,16.314
		c-8.261,6.114-15.836,13.017-22.417,20.602c-6.575,7.588-11.977,16.008-15.78,24.947c-3.804,8.94-5.821,18.464-5.798,28.026
		c-0.041,9.563,1.99,19.088,5.791,28.029c3.774,8.956,9.2,17.367,15.771,24.959c6.576,7.592,14.146,14.505,22.414,20.616
		c8.273,6.104,17.125,11.575,26.408,16.325c18.555,9.546,38.584,16.609,59.2,21.382c20.614,4.831,41.829,7.517,63.161,8.119
		c21.328,0.585,42.79-0.81,63.886-4.612c10.541-1.924,20.989-4.423,31.255-7.561c10.258-3.15,20.363-6.885,30.09-11.475
		c9.729-4.567,19.165-9.827,27.973-16.026c8.803-6.187,17.09-13.191,24.257-21.259c7.164-8.042,13.331-17.072,17.605-27.004
		C433.427,159.688,435.805,148.922,435.815,138.103z"/>
</g>
<g>
	<g>
		<path fill="#C04C37" d="M132.162,189.028c-1.931,0-3.202-0.907-3.805-2.715l-1.203-5.976c-1.288,1.449-2.634,2.756-4.044,3.923
			c-1.408,1.167-2.924,2.173-4.554,3.018c-1.63,0.843-3.382,1.496-5.25,1.959c-1.872,0.463-3.893,0.694-6.068,0.694
			c-3.374,0-6.472-0.704-9.29-2.112c-2.814-1.409-5.24-3.447-7.269-6.12c-2.035-2.677-3.601-5.986-4.708-9.93
			c-1.109-3.945-1.658-8.449-1.658-13.513c0-4.588,0.619-8.854,1.872-12.793c1.246-3.943,3.038-7.361,5.369-10.257
			c2.331-2.896,5.129-5.162,8.387-6.789c3.26-1.628,6.914-2.443,10.98-2.443c3.458,0,6.414,0.552,8.867,1.658
			c2.455,1.106,4.65,2.584,6.582,4.437V99.364h14.901v89.663L132.162,189.028L132.162,189.028z M112.309,178.107
			c3.094,0,5.731-0.645,7.904-1.933c2.173-1.287,4.225-3.116,6.156-5.492v-27.755c-1.694-2.054-3.529-3.5-5.521-4.345
			c-1.992-0.846-4.137-1.269-6.428-1.269c-2.257,0-4.294,0.423-6.125,1.269c-1.832,0.845-3.38,2.121-4.642,3.83
			c-1.272,1.713-2.247,3.884-2.928,6.518c-0.683,2.636-1.029,5.744-1.029,9.325c0,3.62,0.292,6.684,0.873,9.2
			c0.585,2.514,1.422,4.564,2.507,6.152c1.084,1.59,2.413,2.736,3.985,3.441C108.628,177.755,110.378,178.107,112.309,178.107z"/>
		<path fill="#C04C37" d="M160.213,127.119v61.909H145.31v-61.909H160.213z"/>
		<path fill="#C04C37" d="M205.468,139.188c-0.403,0.643-0.825,1.097-1.269,1.358c-0.443,0.26-1.003,0.39-1.69,0.39
			c-0.723,0-1.496-0.202-2.321-0.602c-0.823-0.403-1.78-0.854-2.868-1.36c-1.087-0.501-2.321-0.955-3.711-1.356
			c-1.382-0.398-3.025-0.603-4.918-0.603c-2.932,0-5.248,0.623-6.939,1.87c-1.687,1.25-2.529,2.876-2.529,4.887
			c0,1.329,0.428,2.447,1.292,3.352c0.865,0.902,2.013,1.697,3.443,2.383c1.423,0.685,3.046,1.297,4.856,1.839
			c1.805,0.543,3.655,1.139,5.548,1.782c1.894,0.639,3.743,1.374,5.549,2.198c1.812,0.825,3.428,1.872,4.86,3.139
			c1.428,1.269,2.575,2.785,3.44,4.558c0.865,1.771,1.296,3.9,1.296,6.396c0,2.976-0.543,5.72-1.626,8.232
			c-1.088,2.513-2.68,4.687-4.772,6.517c-2.091,1.832-4.676,3.26-7.752,4.284c-3.076,1.026-6.605,1.54-10.586,1.54
			c-2.133,0-4.215-0.191-6.248-0.574c-2.031-0.381-3.981-0.913-5.849-1.599c-1.873-0.683-3.605-1.488-5.191-2.411
			c-1.591-0.926-2.988-1.931-4.194-3.02l3.439-5.67c0.441-0.684,0.963-1.207,1.568-1.57c0.607-0.359,1.366-0.544,2.295-0.544
			c0.925,0,1.8,0.266,2.623,0.788c0.825,0.521,1.781,1.083,2.868,1.687c1.086,0.605,2.359,1.169,3.831,1.688
			c1.466,0.525,3.328,0.787,5.581,0.787c1.768,0,3.29-0.212,4.554-0.633c1.266-0.422,2.315-0.978,3.138-1.66
			c0.825-0.687,1.429-1.479,1.812-2.383c0.377-0.905,0.573-1.842,0.573-2.808c0-1.45-0.433-2.636-1.296-3.56
			c-0.867-0.925-2.014-1.729-3.439-2.412c-1.43-0.686-3.059-1.298-4.89-1.84c-1.83-0.545-3.697-1.138-5.611-1.78
			c-1.912-0.646-3.779-1.398-5.611-2.266c-1.829-0.862-3.459-1.958-4.887-3.288c-1.429-1.326-2.575-2.956-3.442-4.891
			c-0.865-1.93-1.294-4.26-1.294-6.997c0-2.53,0.503-4.945,1.511-7.24c0.999-2.293,2.48-4.291,4.434-6.003
			c1.95-1.711,4.385-3.078,7.297-4.104c2.918-1.027,6.288-1.538,10.109-1.538c4.263,0,8.146,0.705,11.644,2.113
			c3.504,1.41,6.417,3.257,8.751,5.549L205.468,139.188z"/>
	</g>
	<g>
		<path fill="#2C77A4" d="M315.358,108.279v89.512h-21.551v-89.512H315.358z"/>
		<path fill="#2C77A4" d="M360.374,199.187c-7.736,0-13.697-2.196-17.885-6.589c-4.191-4.392-6.283-10.455-6.283-18.189v-49.987
			h-9.07c-1.166,0-2.166-0.378-3.012-1.136c-0.846-0.755-1.266-1.886-1.266-3.402v-8.546l14.396-2.358l1.748-24.427
			c0.232-1.164,0.773-2.064,1.613-2.705c0.844-0.641,1.902-0.959,3.186-0.959h13.951v28.18h23.553v15.354h-23.553v48.504
			c0,2.792,0.703,4.973,2.096,6.545c1.396,1.57,3.258,2.356,5.584,2.356c1.338,0,2.457-0.162,3.357-0.482
			c0.896-0.318,1.689-0.652,2.352-1.002c0.67-0.351,1.268-0.686,1.793-1.002c0.523-0.321,1.045-0.481,1.568-0.481
			c0.641,0,1.162,0.161,1.57,0.481c0.41,0.316,0.844,0.8,1.311,1.438l6.457,10.468c-3.143,2.618-6.752,4.597-10.82,5.937
			C368.95,198.515,364.733,199.187,360.374,199.187z"/>
	</g>
	
		<text transform="matrix(1 0 0 1 204.9175 190.103)" fill="#C04C37" font-family="'Optima-Bold'" font-size="91.207" letter-spacing="-5">H</text>
	<path fill="#2C77A4" d="M273.142,79.169c0,0,35.48-44.041,41.971,18.497C309.386,85.4,302.179,66.7,273.142,79.169z"/>
	<path fill="#2C77A4" d="M273.142,83.075c0,0,32.014-13.467,34.482,18.948C301.841,94.961,298.604,83.658,273.142,83.075z"/>
	<path fill="#FFFFFF" d="M285.358,72.086c0,0,16.291-11.672,21.822,6.256C303.024,75.105,299.763,69.156,285.358,72.086z"/>
	<path fill="#2C77A4" d="M277.581,85.61c0,13.228-10.723,23.951-23.946,23.951c-13.235,0-23.958-10.724-23.958-23.951
		c0-13.226,10.723-23.952,23.958-23.952C266.858,61.658,277.581,72.385,277.581,85.61z"/>
	<path fill="#2C77A4" d="M271.886,85.61c0,10.083-8.172,18.258-18.25,18.258c-10.092,0-18.264-8.175-18.264-18.258
		c0-10.082,8.172-18.255,18.264-18.255C263.714,67.355,271.886,75.528,271.886,85.61z"/>
	<path fill="none" stroke="#FFFFFF" stroke-width="3" stroke-miterlimit="10" d="M268.79,85.61c0,8.377-6.789,15.167-15.155,15.167
		c-8.386,0-15.17-6.79-15.17-15.167c0-8.376,6.784-15.164,15.17-15.164C262.001,70.446,268.79,77.234,268.79,85.61z"/>
	<path fill="#C04C37" d="M184.284,96.389c0-14.653,11.879-26.528,26.526-26.528c14.654,0,26.527,11.875,26.527,26.528
		c0,14.646-11.873,26.523-26.527,26.523C196.163,122.912,184.284,111.035,184.284,96.389z"/>
	<path fill="none" stroke="#FFFFFF" stroke-width="4" stroke-miterlimit="10" d="M190.592,96.389
		c0-11.166,9.057-20.222,20.218-20.222c11.17,0,20.221,9.056,20.221,20.222s-9.05,20.217-20.221,20.217
		C199.649,116.605,190.592,107.554,190.592,96.389z"/>
	<path fill="none" stroke="#C04C37" stroke-miterlimit="10" d="M194.018,96.389c0-9.28,7.52-16.799,16.792-16.799
		c9.277,0,16.799,7.519,16.799,16.799c0,9.277-7.522,16.793-16.799,16.793C201.538,113.182,194.018,105.666,194.018,96.389z"/>
	<path fill="#C04C37" d="M187.281,98.787c0,0-35.479-44.035-41.971,18.499C151.038,105.023,158.248,86.323,187.281,98.787z"/>
	<path fill="#C04C37" d="M187.238,102.698c0,0-32.01-13.467-34.477,18.948C158.54,114.585,161.77,103.283,187.238,102.698z"/>
	<path fill="#FFFFFF" d="M178.336,91.711c0,0-16.293-11.672-21.828,6.254C160.666,94.729,163.924,88.782,178.336,91.711z"/>
</g>
</svg>
